<svg width="15" height="14" viewBox="0 0 15 14" fill="none" xmlns="http://www.w3.org/2000/svg">
<path d="M5.82405 9.52796C5.67394 9.51653 5.53442 9.44669 5.43516 9.33353L3.10193 7.0003C3.04995 6.89149 3.03298 6.76923 3.05339 6.65031C3.07379 6.5314 3.13054 6.42181 3.21583 6.33649C3.30113 6.25118 3.41077 6.1944 3.52965 6.17402C3.64854 6.15365 3.77083 6.1706 3.87968 6.22255L5.80072 8.14358L12.4349 1.55612C12.5437 1.50414 12.666 1.48718 12.7849 1.50758C12.9038 1.52798 13.0134 1.58473 13.0987 1.67003C13.184 1.75532 13.2408 1.86496 13.2611 1.98385C13.2815 2.10274 13.2646 2.22502 13.2126 2.33387L6.21292 9.33353C6.11368 9.44669 5.97408 9.51653 5.82405 9.52796Z" fill="#E88D67"/>
<path d="M6.99067 14C5.73967 13.998 4.512 13.6607 3.43553 13.0234C2.35906 12.386 1.47309 11.4717 0.869821 10.3757C0.411247 9.55908 0.12783 8.65589 0.0376348 7.72361C-0.104708 6.35642 0.158659 4.97756 0.794877 3.75905C1.4311 2.54056 2.41202 1.53635 3.61526 0.871713C4.4319 0.41314 5.33512 0.129722 6.26737 0.0395274C7.19607 -0.0603816 8.13543 0.0295877 9.02836 0.30396C9.108 0.31988 9.18352 0.352274 9.24994 0.39907C9.31636 0.44586 9.37228 0.506018 9.41412 0.575688C9.45596 0.645351 9.48279 0.722993 9.4929 0.803629C9.50294 0.884258 9.49609 0.966108 9.47268 1.04393C9.44927 1.12175 9.40984 1.19382 9.35695 1.25552C9.30407 1.31723 9.23889 1.36721 9.16563 1.40224C9.09229 1.43729 9.01241 1.45662 8.93122 1.45901C8.85002 1.46141 8.76914 1.4468 8.69393 1.41613C7.93843 1.18897 7.14521 1.11493 6.3607 1.19837C5.58529 1.27777 4.83394 1.51321 4.1519 1.89056C3.49481 2.25306 2.91384 2.73896 2.44086 3.3216C1.95389 3.91515 1.59024 4.59989 1.37122 5.33574C1.1522 6.07161 1.08221 6.84375 1.16536 7.60695C1.24476 8.38236 1.48022 9.13374 1.85755 9.81574C2.22006 10.4729 2.70596 11.0538 3.2886 11.5268C3.88215 12.0138 4.56689 12.3774 5.30273 12.5964C6.03856 12.8154 6.8107 12.8854 7.57398 12.8023C8.34939 12.7229 9.10069 12.4874 9.78277 12.1101C10.4399 11.7476 11.0208 11.2617 11.4938 10.679C11.9808 10.0855 12.3444 9.40074 12.5634 8.66491C12.7824 7.92909 12.8524 7.15695 12.7693 6.39367C12.7616 6.31348 12.7698 6.2326 12.7934 6.1556C12.8171 6.0786 12.8556 6.00697 12.9069 5.94491C12.9581 5.88277 13.0211 5.83136 13.0923 5.79364C13.1635 5.75584 13.2413 5.73251 13.3215 5.72481C13.4017 5.71719 13.4826 5.72535 13.5596 5.749C13.6366 5.77256 13.7082 5.81114 13.7703 5.86239C13.8324 5.91364 13.8838 5.97672 13.9215 6.04781C13.9593 6.11897 13.9827 6.19682 13.9904 6.27701C14.132 7.64506 13.8675 9.02446 13.2298 10.2431C12.5921 11.4617 11.6096 12.4654 10.405 13.1289C9.57962 13.6063 8.66243 13.9032 7.71397 14C7.47287 14 7.22399 14 6.99067 14Z" fill="#E88D67"/>
</svg>
