<svg width="12" height="14" viewBox="0 0 12 14" fill="none" xmlns="http://www.w3.org/2000/svg">
<path d="M0.248491 3C-2.12177 3 13.2793 3 11.9141 3M9.0598 3L8.8667 2.45871C8.67952 1.93417 8.5859 1.67189 8.41236 1.47799C8.25908 1.30675 8.06227 1.17421 7.83992 1.09252C7.58809 1 7.29224 1 6.70039 1H5.71051C5.11866 1 4.8228 1 4.57099 1.09252C4.34864 1.17421 4.1518 1.30675 3.99853 1.47799C3.82496 1.67189 3.73139 1.93417 3.54423 2.45871L3.3511 3M10.487 3V9.8C10.487 10.9361 10.487 13 10.487 13C10.487 13 8.26072 13 7.06175 13H5.34915C4.15021 13 1.92393 13 1.92393 13C1.92393 13 1.92393 10.9362 1.92393 9.8V3M7.63262 5.66667C7.63262 5.26087 7.63262 10.8261 7.63262 10.3333M4.77827 5.66667C4.77827 5.26087 4.77827 10.8261 4.77827 10.3333" stroke="#F3F7EC" stroke-width="1.5" stroke-linecap="round" stroke-linejoin="round"/>
</svg>
