<svg width="18" height="18" viewBox="0 0 18 18" fill="none" xmlns="http://www.w3.org/2000/svg">
<g clip-path="url(#clip0_6_209)">
<rect width="18" height="18" rx="9" fill="#CEA100"/>
<path d="M9.31587 5.57907C10.1872 5.57907 10.8936 4.90579 10.8936 4.07525C10.8936 3.24471 10.1872 2.57143 9.31587 2.57143C8.44452 2.57143 7.73816 3.24471 7.73816 4.07525C7.73816 4.90579 8.44452 5.57907 9.31587 5.57907Z" fill="#13191C"/>
<path d="M9.31588 15.4286C9.83863 15.4286 10.2624 15.0247 10.2624 14.5264C10.2624 14.0281 9.83863 13.6242 9.31588 13.6242C8.79313 13.6242 8.36935 14.0281 8.36935 14.5264C8.36935 15.0247 8.79313 15.4286 9.31588 15.4286Z" fill="#13191C"/>
<path d="M5.43917 6.95897C6.22344 6.95897 6.85921 6.35297 6.85921 5.60543C6.85921 4.85789 6.22344 4.25189 5.43917 4.25189C4.65491 4.25189 4.01913 4.85789 4.01913 5.60543C4.01913 6.35297 4.65491 6.95897 5.43917 6.95897Z" fill="#13191C"/>
<path d="M13.1926 13.7471C13.6282 13.7471 13.9814 13.4105 13.9814 12.9952C13.9814 12.58 13.6282 12.2433 13.1926 12.2433C12.7569 12.2433 12.4037 12.58 12.4037 12.9952C12.4037 13.4105 12.7569 13.7471 13.1926 13.7471Z" fill="#13191C"/>
<path d="M3.8333 10.5038C4.53021 10.5038 5.09516 9.96532 5.09516 9.30105C5.09516 8.63678 4.53021 8.09828 3.8333 8.09828C3.1364 8.09828 2.57144 8.63678 2.57144 9.30105C2.57144 9.96532 3.1364 10.5038 3.8333 10.5038Z" fill="#13191C"/>
<path d="M14.7979 9.90172C15.1462 9.90172 15.4286 9.63259 15.4286 9.30059C15.4286 8.96859 15.1462 8.69945 14.7979 8.69945C14.4496 8.69945 14.1672 8.96859 14.1672 9.30059C14.1672 9.63259 14.4496 9.90172 14.7979 9.90172Z" fill="#13191C"/>
<path d="M4.65849 12.2521C4.22695 12.6634 4.22695 13.329 4.65849 13.7403C5.08952 14.1517 5.78879 14.1517 6.21982 13.7403C6.65136 13.329 6.65136 12.6634 6.21982 12.2521C5.78879 11.8403 5.09003 11.8364 4.65849 12.2521Z" fill="#13191C"/>
<path d="M13.1921 6.05629C13.4533 6.05629 13.6651 5.85444 13.6651 5.60544C13.6651 5.35644 13.4533 5.15459 13.1921 5.15459C12.9308 5.15459 12.7191 5.35644 12.7191 5.60544C12.7191 5.85444 12.9308 6.05629 13.1921 6.05629Z" fill="#13191C"/>
<rect width="18" height="18" rx="9" fill="#0088B4"/>
<path d="M12.9331 6.3387L14.1834 5.09129L12.9081 3.81689L11.6609 5.06727C11.1379 4.71116 10.5408 4.46408 9.89862 4.33901V2.57143H8.10034V4.33999C7.45621 4.46404 6.86212 4.71009 6.34105 5.06722L5.09087 3.81684L3.81866 5.09124L5.06485 6.33865C4.71381 6.86184 4.46677 7.45501 4.34172 8.10123H2.57144V9.89882H4.34172C4.46672 10.541 4.71279 11.1352 5.06485 11.6584L3.81866 12.9088L5.08985 14.1812L6.34003 12.9328C6.8611 13.2869 7.45621 13.534 8.10034 13.659V15.4286H9.89964V13.659C10.5417 13.536 11.1368 13.2899 11.6619 12.9348L12.9092 14.1812L14.1844 12.9088L12.9342 11.6584C13.2883 11.1372 13.5363 10.541 13.6563 9.89882H15.4286V8.10123H13.6553C13.5342 7.45505 13.2882 6.86189 12.9331 6.3387ZM8.99851 10.9652C7.91533 10.9652 7.03618 10.0819 7.03618 8.99657C7.03618 7.9142 7.91533 7.03296 8.99851 7.03296C10.0847 7.03296 10.9648 7.91425 10.9648 8.99657C10.9658 10.0819 10.0857 10.9652 8.99851 10.9652Z" fill="#13191C"/>
</g>
<defs>
<clipPath id="clip0_6_209">
<rect width="18" height="18" rx="9" fill="white"/>
</clipPath>
</defs>
</svg>
