<svg width="19" height="18" viewBox="0 0 19 18" fill="none" xmlns="http://www.w3.org/2000/svg">
<path fill-rule="evenodd" clip-rule="evenodd" d="M18.5031 9C18.5031 13.9705 14.4736 18 9.50311 18C4.53255 18 0.503113 13.9705 0.503113 9C0.503113 4.02944 4.53255 0 9.50311 0C14.4736 0 18.5031 4.02944 18.5031 9ZM13.1304 6.2727C13.394 6.5363 13.394 6.9637 13.1304 7.22727L8.63038 11.7273C8.36677 11.9909 7.93945 11.9909 7.67582 11.7273L5.87582 9.92727C5.61221 9.66366 5.61221 9.23634 5.87582 8.97273C6.13942 8.70912 6.56681 8.70912 6.83041 8.97273L8.15311 10.2954L10.1644 8.28405L12.1758 6.2727C12.4395 6.0091 12.8668 6.0091 13.1304 6.2727Z" fill="#419500"/>
</svg>
