<svg width="18" height="18" viewBox="0 0 18 18" fill="none" xmlns="http://www.w3.org/2000/svg">
<rect width="18" height="18" rx="9" fill="#CEA100"/>
<path d="M9.31587 5.57909C10.1872 5.57909 10.8936 4.9058 10.8936 4.07526C10.8936 3.24473 10.1872 2.57144 9.31587 2.57144C8.44452 2.57144 7.73816 3.24473 7.73816 4.07526C7.73816 4.9058 8.44452 5.57909 9.31587 5.57909Z" fill="#13191C"/>
<path d="M9.31588 15.4286C9.83863 15.4286 10.2624 15.0247 10.2624 14.5264C10.2624 14.0282 9.83863 13.6242 9.31588 13.6242C8.79313 13.6242 8.36935 14.0282 8.36935 14.5264C8.36935 15.0247 8.79313 15.4286 9.31588 15.4286Z" fill="#13191C"/>
<path d="M5.43917 6.959C6.22344 6.959 6.85921 6.353 6.85921 5.60546C6.85921 4.85792 6.22344 4.25192 5.43917 4.25192C4.65491 4.25192 4.01913 4.85792 4.01913 5.60546C4.01913 6.353 4.65491 6.959 5.43917 6.959Z" fill="#13191C"/>
<path d="M13.1926 13.7472C13.6282 13.7472 13.9814 13.4105 13.9814 12.9953C13.9814 12.58 13.6282 12.2433 13.1926 12.2433C12.7569 12.2433 12.4037 12.58 12.4037 12.9953C12.4037 13.4105 12.7569 13.7472 13.1926 13.7472Z" fill="#13191C"/>
<path d="M3.8333 10.5038C4.53021 10.5038 5.09516 9.96533 5.09516 9.30106C5.09516 8.63679 4.53021 8.0983 3.8333 8.0983C3.1364 8.0983 2.57144 8.63679 2.57144 9.30106C2.57144 9.96533 3.1364 10.5038 3.8333 10.5038Z" fill="#13191C"/>
<path d="M14.7979 9.90174C15.1462 9.90174 15.4286 9.6326 15.4286 9.3006C15.4286 8.9686 15.1462 8.69946 14.7979 8.69946C14.4496 8.69946 14.1672 8.9686 14.1672 9.3006C14.1672 9.6326 14.4496 9.90174 14.7979 9.90174Z" fill="#13191C"/>
<path d="M4.65849 12.2521C4.22695 12.6635 4.22695 13.329 4.65849 13.7403C5.08952 14.1517 5.78879 14.1517 6.21982 13.7403C6.65136 13.329 6.65136 12.6635 6.21982 12.2521C5.78879 11.8403 5.09003 11.8364 4.65849 12.2521Z" fill="#13191C"/>
<path d="M13.1921 6.05631C13.4533 6.05631 13.6651 5.85446 13.6651 5.60546C13.6651 5.35646 13.4533 5.1546 13.1921 5.1546C12.9308 5.1546 12.7191 5.35646 12.7191 5.60546C12.7191 5.85446 12.9308 6.05631 13.1921 6.05631Z" fill="#13191C"/>
</svg>
