<svg width="260" height="281" viewBox="0 0 260 281" fill="none" xmlns="http://www.w3.org/2000/svg">
<g clip-path="url(#clip0_11_66)">
<path d="M182.212 123.044C197.837 123.044 210.504 110.381 210.504 94.7595C210.504 79.1383 197.837 66.4749 182.212 66.4749C166.587 66.4749 153.92 79.1383 153.92 94.7595C153.92 110.381 166.587 123.044 182.212 123.044Z" fill="#006989"/>
<path d="M259.818 115.848C259.88 115.837 259.927 115.793 260 115.804C259.968 115.682 259.927 115.562 259.876 115.446C259.786 115.569 259.694 115.694 259.614 115.804L259.818 115.848Z" fill="white"/>
<path d="M70.0608 161.704C70.226 167.875 71.26 173.992 73.1321 179.874C73.1749 180.011 73.2197 180.145 73.2645 180.282H84.7264C84.7141 180.16 84.7019 180.023 84.6897 179.874C83.9254 171.091 79.5192 117.631 84.7875 108.488C84.3269 109.23 69.1722 133.794 70.0608 161.704Z" fill="#27353C"/>
<path d="M70.9208 179.874C71.0166 180.011 71.1165 180.147 71.2184 180.282H79.8168C79.7516 180.166 79.6762 180.029 79.5885 179.874C78.1681 177.311 73.9636 169.648 70.0608 161.704C65.8666 153.167 62.0188 144.306 62.3429 141.099C62.243 141.822 59.3408 163.872 70.9208 179.874Z" fill="#1B2428"/>
<path d="M160.27 181.344C160.126 186.724 159.225 192.057 157.593 197.185C157.555 197.304 157.516 197.421 157.477 197.54H147.485C147.495 197.434 147.506 197.315 147.517 197.185C148.183 189.527 152.024 142.92 147.431 134.95C147.833 135.596 161.045 157.012 160.27 181.344Z" fill="#1B2428"/>
<path d="M159.52 197.185C159.437 197.304 159.35 197.423 159.261 197.54H151.765C151.822 197.439 151.887 197.32 151.964 197.185C153.202 194.95 156.868 188.27 160.27 181.344C163.927 173.901 167.281 166.176 166.999 163.38C167.086 164.01 169.616 183.234 159.52 197.185Z" fill="#27353C"/>
<path d="M46.0172 22.9582L50.6771 19.232C47.057 18.8327 45.5696 20.8066 44.9608 22.3689C42.1326 21.1948 39.0538 22.7335 39.0538 22.7335L48.3775 26.1175C47.9072 24.8614 47.0884 23.7655 46.0172 22.9582Z" fill="#3F3D56"/>
<path d="M186.371 3.77833L191.031 0.0521831C187.411 -0.347114 185.924 1.62672 185.315 3.18903C182.487 2.01496 179.408 3.55364 179.408 3.55364L188.732 6.93763C188.261 5.6816 187.442 4.58567 186.371 3.77833Z" fill="#3F3D56"/>
<path d="M254.934 151.13C254.934 154.217 254.826 157.279 254.611 160.316C252.951 184.276 244.641 207.299 230.615 226.797C228.782 229.355 226.857 231.84 224.841 234.255C219.617 240.519 213.816 246.279 207.515 251.46L179.897 235.259L163.384 196.728C163.384 196.728 188.022 146.855 254.89 147.759C254.918 148.879 254.933 150.002 254.934 151.13Z" fill="#3F3D56"/>
<path d="M254.611 160.316C253.341 178.221 248.372 195.667 240.018 211.556C231.665 227.444 220.108 241.429 206.077 252.628L180.419 237.577L165.775 203.404C165.775 203.404 189.504 155.372 254.611 160.316Z" fill="#E88D67"/>
<path d="M230.615 226.797C228.782 229.355 226.857 231.84 224.841 234.255C211.331 250.483 194.067 263.175 174.546 271.232C170.593 272.861 166.547 274.298 162.408 275.542C132.523 283.488 100.861 281.478 72.2212 269.818C43.8964 257.179 21.007 234.857 7.66433 206.862C5.8712 203.094 4.2587 199.229 2.82684 195.27C27.7993 176.98 77.0069 150.791 130.638 176.239C145.473 183.279 158.719 189.695 170.378 195.489C199.96 210.149 219.649 220.718 230.615 226.797Z" fill="#3F3D56"/>
<path d="M224.841 234.255C210.875 250.988 192.924 263.942 172.639 271.924C152.355 279.905 130.388 282.659 108.76 279.931C87.1326 277.203 66.5383 269.081 48.8722 256.313C31.2061 243.545 17.0356 226.539 7.66431 206.862C28.5205 190.374 76.6243 160.742 129.414 185.788C142.99 192.23 155.111 198.102 165.775 203.404C196.864 218.81 216.015 229.279 224.841 234.255Z" fill="#E88D67"/>
<path d="M188.03 264.734C183.662 267.155 179.16 269.324 174.546 271.232C158.841 277.702 142.017 281.021 125.031 281C104.932 280.992 85.1081 276.326 67.1167 267.368C49.1254 258.409 33.4562 245.403 21.34 229.371C52.3652 226.1 138.125 221.69 188.03 264.734Z" fill="#3F3D56"/>
<path d="M174.546 271.232C150.194 281.243 123.376 283.627 97.6387 278.07C71.9018 272.513 48.4585 259.276 30.4092 240.111C41.694 238.454 130.291 227.072 174.546 271.232Z" fill="#E88D67"/>
<path d="M233.145 79.1113V79.1153C140.388 10.5509 34.115 58.8101 33.2942 59.1806V59.1766C45.3397 47.1355 59.6429 37.5884 75.3846 31.0819C91.1262 24.5754 107.997 21.2375 125.031 21.2592C170.126 21.2592 209.854 44.2335 233.145 79.1113Z" fill="#27353C"/>
<path d="M40.7339 153.647C56.4254 150.819 64.4662 122.578 58.6936 90.5686C52.9211 58.5597 35.521 34.9042 19.8296 37.7326C4.13811 40.561 -3.90275 68.8023 1.86982 100.811C7.64239 132.82 25.0424 156.476 40.7339 153.647Z" fill="#3F3D56"/>
<path d="M44.7665 191.03C43.8363 120.722 20.3065 54.7428 20.069 54.0851L17.9232 54.8589C18.1595 55.5134 41.5601 121.147 42.4855 191.061L44.7665 191.03Z" fill="#E88D67"/>
<path d="M3.02012 87.7362L2.31805 89.9066L30.4878 99.0143L31.1899 96.844L3.02012 87.7362Z" fill="#E88D67"/>
<path d="M56.0098 85.2914L32.7998 103.668L34.2163 105.457L57.4263 87.0795L56.0098 85.2914Z" fill="#E88D67"/>
<path d="M116.184 143.511C133.438 143.511 147.424 114.98 147.424 79.7848C147.424 44.5897 133.438 16.0584 116.184 16.0584C98.931 16.0584 84.9443 44.5897 84.9443 79.7848C84.9443 114.98 98.931 143.511 116.184 143.511Z" fill="#3F3D56"/>
<path d="M113.299 184.095C125.811 109.044 113.425 34.2645 113.299 33.5185L110.865 33.9307C110.991 34.673 123.306 109.06 110.864 183.69L113.299 184.095Z" fill="#E88D67"/>
<path d="M88.6804 66.0817L87.5159 68.2582L115.765 83.3646L116.93 81.1881L88.6804 66.0817Z" fill="#E88D67"/>
<path d="M145.58 73.6489L117.334 88.7639L118.499 90.9401L146.745 75.8251L145.58 73.6489Z" fill="#E88D67"/>
<path d="M251.881 123.012C240.419 116.579 228.444 111.105 216.079 106.647C147.704 81.9119 79.9038 91.445 53.3654 126.845C74.0183 83.4775 147.712 69.8411 222.08 96.7434C230.735 99.8718 239.206 103.49 247.45 107.579C249.247 112.627 250.727 117.781 251.881 123.012Z" fill="#1B2428"/>
<path d="M159.538 53.2261L164.197 49.4999C160.577 49.1006 159.09 51.0745 158.481 52.6368C155.653 51.4627 152.574 53.0014 152.574 53.0014L161.898 56.3854C161.428 55.1294 160.609 54.0334 159.538 53.2261Z" fill="#3F3D56"/>
</g>
<defs>
<clipPath id="clip0_11_66">
<rect width="260" height="281" fill="white"/>
</clipPath>
</defs>
</svg>
